<?xml version="1.0" standalone="no"?>
<!DOCTYPE svg PUBLIC "-//W3C//DTD SVG 20010904//EN"
 "http://www.w3.org/TR/2001/REC-SVG-20010904/DTD/svg10.dtd">
<svg version="1.0" xmlns="http://www.w3.org/2000/svg"
 width="490.000000pt" height="360.000000pt" viewBox="0 0 490.000000 360.000000"
 preserveAspectRatio="xMidYMid meet">

<g transform="translate(0.000000,360.000000) scale(0.100000,-0.100000)"
fill="#000000" stroke="none">
<path d="M3509 3200 c-102 -54 -183 -263 -196 -500 l-6 -115 -73 -95 c-112
-146 -164 -188 -184 -150 -21 39 -10 62 64 140 44 46 79 92 86 115 16 47 8
120 -15 145 -22 24 -83 27 -124 6 -62 -32 -142 -149 -159 -233 -5 -25 -14 -39
-26 -41 -17 -4 -18 1 -12 66 8 83 -6 147 -35 162 -84 46 -153 -86 -90 -171 28
-38 29 -65 4 -174 -28 -127 -77 -204 -119 -188 -14 5 -15 15 -8 77 5 39 9 118
9 174 l0 104 -33 29 c-23 20 -43 29 -68 29 -34 0 -35 -1 -29 -29 3 -16 -1 -71
-10 -122 -11 -60 -15 -116 -11 -156 l6 -61 -49 -54 c-27 -29 -53 -49 -58 -45
-4 5 -6 46 -3 90 9 162 6 194 -21 223 -29 32 -78 54 -120 54 -26 0 -30 -3 -23
-17 5 -10 8 -68 8 -130 -2 -104 -4 -115 -34 -171 -41 -77 -83 -128 -98 -118
-18 11 -14 106 8 217 29 143 47 173 80 134 10 -12 16 -13 24 -5 8 8 3 18 -18
37 -61 52 -144 1 -207 -126 -29 -57 -33 -77 -35 -148 -1 -78 -3 -84 -44 -148
-50 -77 -98 -121 -113 -106 -8 8 -5 50 8 140 10 71 15 146 12 167 -7 40 -36
78 -79 100 -32 17 -82 19 -73 3 9 -13 -14 -139 -28 -156 -5 -7 -24 -13 -43
-13 l-33 0 1 83 c1 91 -11 124 -51 134 -19 5 -30 -1 -49 -22 -21 -25 -24 -36
-20 -87 4 -49 9 -64 36 -91 l31 -32 -38 -87 c-64 -144 -172 -288 -216 -288
-20 0 -45 28 -46 53 -7 105 18 250 76 447 51 177 58 254 25 307 -47 78 -173
92 -241 27 -33 -32 -37 -50 -11 -57 11 -2 21 -13 24 -23 3 -11 -10 -93 -29
-184 -39 -191 -53 -388 -34 -482 36 -170 178 -219 306 -106 70 61 174 231 205
335 13 41 14 42 56 40 l42 -2 -5 -65 c-9 -116 28 -192 102 -206 75 -14 138 25
210 130 l36 53 29 -28 c56 -56 118 -29 191 84 l37 57 12 -35 c14 -43 44 -65
89 -65 45 0 89 29 145 95 l47 55 39 -26 c106 -70 213 8 279 204 14 43 29 79
34 80 28 7 37 0 37 -32 0 -70 39 -130 92 -141 80 -18 167 41 269 181 60 82 79
99 79 69 0 -8 16 -33 36 -55 38 -42 80 -57 133 -45 41 9 111 73 143 132 31 55
47 133 29 133 -6 0 -11 -6 -11 -12 0 -29 -61 -136 -96 -170 -60 -57 -86 -55
-110 7 -12 32 -15 62 -12 103 5 50 14 69 73 157 102 151 148 252 149 330 1 50
-4 70 -20 92 -27 36 -83 41 -135 13z m84 -38 c10 -48 -11 -164 -42 -239 -25
-62 -78 -163 -85 -163 -4 0 41 247 54 300 15 59 46 130 58 130 5 0 12 -13 15
-28z m-453 -473 c0 -34 -49 -157 -81 -204 l-20 -30 7 50 c4 28 15 79 26 115
28 92 68 133 68 69z m-360 -84 c0 -62 -11 -84 -24 -49 -8 21 -8 99 1 107 17
17 23 2 23 -58z m-1275 -330 c4 -24 3 -61 -2 -82 l-9 -38 -17 32 c-17 32 -23
113 -10 126 17 18 32 3 38 -38z"/>
<path d="M2420 3159 c-44 -105 -324 -327 -448 -354 -97 -21 70 -40 212 -25 55
7 134 22 175 36 66 20 192 87 242 126 29 23 69 90 69 114 0 23 -1 23 -45 -11
-51 -39 -205 -92 -205 -71 0 2 7 23 16 47 18 52 22 127 7 153 -9 16 -11 14
-23 -15z m-16 -121 c-8 -24 -21 -53 -30 -66 -13 -20 -13 -23 2 -29 8 -3 50 -3
92 1 89 7 86 2 -34 -58 -91 -45 -169 -65 -279 -72 l-90 -5 60 33 c33 18 82 49
109 67 51 35 166 148 166 163 0 4 4 8 10 8 5 0 2 -19 -6 -42z"/>
<path d="M1656 3113 c-3 -4 -6 -14 -6 -23 0 -46 -86 -85 -424 -195 -155 -50
-225 -79 -292 -118 -203 -119 -348 -329 -315 -454 14 -51 46 -93 72 -93 16 0
19 7 19 45 0 106 111 238 265 317 90 46 209 87 450 153 149 41 262 92 299 136
33 39 35 111 7 168 -20 38 -63 75 -75 64z"/>
<path d="M4026 1991 c-4 -5 -2 -56 4 -113 21 -216 25 -187 -33 -264 -31 -41
-61 -70 -73 -72 -21 -3 -22 0 -25 145 -4 127 -7 153 -25 183 -25 44 -58 61
-109 58 -34 -3 -39 -6 -36 -23 2 -11 6 -89 8 -173 l4 -154 -30 -46 c-41 -65
-96 -116 -115 -109 -21 8 -21 58 0 173 31 178 -11 258 -128 240 l-43 -6 0 -84
c0 -47 -2 -87 -5 -89 -3 -3 -17 -8 -31 -12 -25 -6 -27 -4 -38 53 -13 66 -31
89 -79 98 -47 10 -72 -16 -72 -74 0 -40 5 -49 41 -83 39 -36 41 -40 34 -80
-19 -111 -74 -229 -131 -282 -56 -52 -73 -1 -54 162 11 93 10 112 -3 137 -24
47 -53 67 -106 72 l-49 4 -1 -142 c-2 -140 -2 -145 -33 -202 -39 -74 -91 -134
-106 -124 -28 17 -4 284 32 354 16 32 24 36 60 32 25 -2 16 22 -15 37 -80 41
-179 -19 -236 -143 -30 -66 -38 -136 -24 -203 11 -52 11 -54 -24 -101 -36 -49
-109 -120 -123 -120 -5 0 -17 6 -27 14 -18 13 -18 20 -6 152 15 170 7 206 -52
237 -42 21 -127 35 -127 20 0 -5 5 -14 11 -20 6 -6 9 -23 7 -39 -3 -25 -8 -29
-66 -42 -35 -7 -65 -12 -67 -10 -2 2 -8 32 -14 68 -21 130 -86 215 -208 272
-57 27 -72 30 -131 26 -78 -6 -166 -39 -248 -94 -86 -57 -223 -199 -278 -286
-108 -174 -136 -360 -65 -424 30 -27 93 -25 121 4 20 20 21 25 9 44 -25 39
-26 173 -2 272 45 186 151 325 312 406 70 35 91 41 126 37 56 -6 110 -48 135
-105 24 -54 47 -177 47 -252 l1 -55 -100 -52 c-55 -29 -100 -49 -100 -44 0 5
5 33 10 62 18 94 15 233 -6 268 -23 40 -73 63 -127 59 -42 -3 -42 -3 -39 -39
2 -20 -4 -76 -13 -125 -9 -49 -19 -152 -22 -229 -5 -135 -6 -141 -33 -170 -82
-90 -120 -164 -120 -237 0 -45 4 -55 38 -88 72 -72 211 -72 358 0 160 78 297
323 339 602 7 47 8 48 58 63 61 18 77 19 77 3 0 -7 -7 -63 -17 -124 -20 -136
-10 -187 44 -234 76 -68 192 -19 302 126 l48 63 31 -32 c62 -61 132 -33 220
89 l46 63 12 -28 c31 -73 109 -91 185 -43 91 59 163 168 205 316 17 59 21 66
44 66 25 0 25 0 21 -81 -6 -133 35 -199 122 -199 55 0 131 62 213 175 l22 29
36 -32 c64 -56 128 -38 201 54 22 27 43 54 48 59 13 15 2 -473 -12 -517 -25
-80 -96 -133 -194 -144 -111 -13 -167 31 -167 131 0 49 4 60 29 86 18 17 40
29 56 29 38 0 27 21 -25 48 -60 31 -124 26 -214 -16 -79 -37 -160 -92 -407
-278 -206 -154 -291 -206 -414 -252 -157 -60 -319 -54 -355 13 -7 14 -10 38
-7 59 5 34 4 36 -28 42 -85 16 -165 -53 -165 -143 1 -109 99 -200 236 -218 62
-9 217 10 304 37 160 50 241 109 505 373 199 200 309 296 375 330 43 22 108
36 116 24 3 -5 1 -9 -5 -9 -21 0 -44 -65 -44 -121 2 -146 116 -213 291 -170
115 29 235 144 267 256 25 89 35 267 25 470 -5 105 -14 207 -20 227 -14 49
-53 94 -101 118 -43 22 -55 24 -63 11z m-746 -260 c14 -28 13 -74 -2 -69 -20
7 -42 53 -35 71 9 23 24 21 37 -2z m-1350 -518 c0 -45 -31 -215 -51 -278 -62
-200 -154 -288 -304 -289 -115 -1 -165 36 -165 123 0 59 57 156 122 209 14 11
18 4 37 -56 24 -80 51 -119 97 -138 54 -23 57 -20 49 44 -6 52 8 253 21 295 5
15 162 105 187 106 4 1 7 -7 7 -16z"/>
<path d="M2263 1706 c-24 -21 -28 -32 -28 -76 0 -46 4 -55 33 -81 78 -70 187
-8 168 95 -15 81 -111 115 -173 62z"/>
</g>
</svg>
